<mxfile host="app.diagrams.net" modified="2023-10-18T04:22:51.424Z" agent="Mozilla/5.0 (Windows NT 10.0; Win64; x64) AppleWebKit/537.36 (KHTML, like Gecko) Chrome/118.0.0.0 Safari/537.36" etag="02APUGqwao1h0WzBKyFw" version="22.0.4" type="google">
  <diagram name="Page-1" id="hNfyuM0IiAld1RxfZB6r">
    <mxGraphModel grid="1" page="1" gridSize="10" guides="1" tooltips="1" connect="1" arrows="1" fold="1" pageScale="1" pageWidth="850" pageHeight="1100" math="0" shadow="0">
      <root>
        <mxCell id="0" />
        <mxCell id="1" parent="0" />
        <mxCell id="tAgOyQD6eEbp63vZx9_7-24" style="edgeStyle=orthogonalEdgeStyle;rounded=0;orthogonalLoop=1;jettySize=auto;html=1;exitX=0.5;exitY=1;exitDx=0;exitDy=0;entryX=0.5;entryY=0;entryDx=0;entryDy=0;" edge="1" parent="1" source="tAgOyQD6eEbp63vZx9_7-25" target="tAgOyQD6eEbp63vZx9_7-27">
          <mxGeometry relative="1" as="geometry" />
        </mxCell>
        <mxCell id="tAgOyQD6eEbp63vZx9_7-25" value="&lt;span style=&quot;font-size: 14px;&quot;&gt;&lt;b&gt;START&lt;/b&gt;&lt;/span&gt;" style="ellipse;whiteSpace=wrap;html=1;" vertex="1" parent="1">
          <mxGeometry x="308.5" y="79" width="127.5" height="70" as="geometry" />
        </mxCell>
        <mxCell id="tAgOyQD6eEbp63vZx9_7-27" value="&lt;font style=&quot;font-size: 14px;&quot;&gt;&lt;b&gt;Get the &lt;br&gt;Company_Symbol &lt;br&gt;from user&lt;/b&gt;&lt;/font&gt;" style="rounded=0;whiteSpace=wrap;html=1;" vertex="1" parent="1">
          <mxGeometry x="282.25" y="199" width="180" height="60" as="geometry" />
        </mxCell>
        <mxCell id="tAgOyQD6eEbp63vZx9_7-29" value="&lt;b&gt;&lt;font style=&quot;font-size: 14px;&quot;&gt;generate data using &lt;br&gt;yahooFinanace&lt;br style=&quot;border-color: var(--border-color);&quot;&gt;libraries&lt;/font&gt;&lt;/b&gt;" style="rounded=0;whiteSpace=wrap;html=1;" vertex="1" parent="1">
          <mxGeometry x="247.25" y="439" width="250" height="100" as="geometry" />
        </mxCell>
        <mxCell id="tAgOyQD6eEbp63vZx9_7-32" value="&lt;b&gt;&lt;font style=&quot;font-size: 14px;&quot;&gt;Does the symbol &lt;br&gt;give any output?&lt;/font&gt;&lt;/b&gt;" style="rhombus;whiteSpace=wrap;html=1;" vertex="1" parent="1">
          <mxGeometry x="287.25" y="599" width="170" height="167.5" as="geometry" />
        </mxCell>
        <mxCell id="tAgOyQD6eEbp63vZx9_7-33" value="&lt;b&gt;&lt;font style=&quot;font-size: 14px;&quot;&gt;No&lt;/font&gt;&lt;/b&gt;" style="text;html=1;align=center;verticalAlign=middle;resizable=0;points=[];autosize=1;strokeColor=none;fillColor=none;" vertex="1" parent="1">
          <mxGeometry x="506" y="645.25" width="40" height="30" as="geometry" />
        </mxCell>
        <mxCell id="tAgOyQD6eEbp63vZx9_7-34" style="edgeStyle=orthogonalEdgeStyle;rounded=0;orthogonalLoop=1;jettySize=auto;html=1;exitX=0.5;exitY=1;exitDx=0;exitDy=0;entryX=1;entryY=0.5;entryDx=0;entryDy=0;" edge="1" parent="1" source="tAgOyQD6eEbp63vZx9_7-35" target="tAgOyQD6eEbp63vZx9_7-38">
          <mxGeometry relative="1" as="geometry" />
        </mxCell>
        <mxCell id="tAgOyQD6eEbp63vZx9_7-35" value="&lt;font style=&quot;font-size: 14px;&quot;&gt;&lt;b&gt;Get Data from &lt;br&gt;Alphavantage.co and query.yahoo.com&lt;/b&gt;&lt;/font&gt;" style="rounded=0;whiteSpace=wrap;html=1;" vertex="1" parent="1">
          <mxGeometry x="586" y="645.25" width="230" height="75" as="geometry" />
        </mxCell>
        <mxCell id="tAgOyQD6eEbp63vZx9_7-36" value="&lt;b&gt;&lt;font style=&quot;font-size: 12px;&quot;&gt;Yes&lt;/font&gt;&lt;/b&gt;" style="text;html=1;align=center;verticalAlign=middle;resizable=0;points=[];autosize=1;strokeColor=none;fillColor=none;" vertex="1" parent="1">
          <mxGeometry x="368.5" y="789" width="40" height="30" as="geometry" />
        </mxCell>
        <mxCell id="tAgOyQD6eEbp63vZx9_7-37" style="edgeStyle=orthogonalEdgeStyle;rounded=0;orthogonalLoop=1;jettySize=auto;html=1;exitX=0.5;exitY=1;exitDx=0;exitDy=0;" edge="1" parent="1">
          <mxGeometry relative="1" as="geometry">
            <mxPoint x="372" y="909" as="sourcePoint" />
            <mxPoint x="372" y="959" as="targetPoint" />
          </mxGeometry>
        </mxCell>
        <mxCell id="tAgOyQD6eEbp63vZx9_7-38" value="&lt;font style=&quot;font-size: 14px;&quot;&gt;&lt;b&gt;Structure Data and store &lt;br&gt;to json format&lt;/b&gt;&lt;/font&gt;" style="rounded=0;whiteSpace=wrap;html=1;" vertex="1" parent="1">
          <mxGeometry x="266" y="849" width="220" height="60" as="geometry" />
        </mxCell>
        <mxCell id="tAgOyQD6eEbp63vZx9_7-40" value="&lt;b&gt;&lt;font style=&quot;font-size: 14px;&quot;&gt;Get the stocks data from &lt;br&gt;previous month&#39;s first date to yesterday&#39;s date&lt;/font&gt;&lt;/b&gt;" style="rounded=0;whiteSpace=wrap;html=1;" vertex="1" parent="1">
          <mxGeometry x="251" y="959" width="250" height="60" as="geometry" />
        </mxCell>
        <mxCell id="tAgOyQD6eEbp63vZx9_7-42" value="&lt;font style=&quot;font-size: 14px;&quot;&gt;&lt;b&gt;Store Stocks &lt;br&gt;Data to json format&lt;/b&gt;&lt;/font&gt;" style="rounded=0;whiteSpace=wrap;html=1;" vertex="1" parent="1">
          <mxGeometry x="266" y="1069" width="220" height="60" as="geometry" />
        </mxCell>
        <mxCell id="tAgOyQD6eEbp63vZx9_7-44" value="&lt;font style=&quot;font-size: 14px;&quot;&gt;&lt;b&gt;Based on Stocks Information,&lt;br&gt;apply Machine Learning to&lt;br&gt;predict the Stocks.&lt;br&gt;&lt;/b&gt;&lt;/font&gt;" style="rounded=0;whiteSpace=wrap;html=1;" vertex="1" parent="1">
          <mxGeometry x="231" y="1199" width="290" height="80" as="geometry" />
        </mxCell>
        <mxCell id="tAgOyQD6eEbp63vZx9_7-46" value="&lt;font style=&quot;font-size: 14px;&quot;&gt;&lt;b&gt;Send the data&lt;br&gt;to the user&lt;br&gt;&lt;/b&gt;&lt;/font&gt;" style="rounded=0;whiteSpace=wrap;html=1;" vertex="1" parent="1">
          <mxGeometry x="286" y="1339" width="180" height="60" as="geometry" />
        </mxCell>
        <mxCell id="tAgOyQD6eEbp63vZx9_7-49" value="&lt;b&gt;&lt;font style=&quot;font-size: 14px;&quot;&gt;Pass the Symbol to backend using API&lt;/font&gt;&lt;/b&gt;" style="rounded=0;whiteSpace=wrap;html=1;" vertex="1" parent="1">
          <mxGeometry x="282.25" y="309" width="180" height="70" as="geometry" />
        </mxCell>
        <mxCell id="tAgOyQD6eEbp63vZx9_7-51" value="&lt;span style=&quot;font-size: 14px;&quot;&gt;&lt;b&gt;END&lt;/b&gt;&lt;/span&gt;" style="ellipse;whiteSpace=wrap;html=1;" vertex="1" parent="1">
          <mxGeometry x="312.25" y="1459" width="127.5" height="70" as="geometry" />
        </mxCell>
        <mxCell id="tAgOyQD6eEbp63vZx9_7-52" value="" style="endArrow=classic;html=1;rounded=0;exitX=0.5;exitY=1;exitDx=0;exitDy=0;" edge="1" parent="1" source="tAgOyQD6eEbp63vZx9_7-27" target="tAgOyQD6eEbp63vZx9_7-49">
          <mxGeometry width="50" height="50" relative="1" as="geometry">
            <mxPoint x="296" y="499" as="sourcePoint" />
            <mxPoint x="346" y="449" as="targetPoint" />
          </mxGeometry>
        </mxCell>
        <mxCell id="tAgOyQD6eEbp63vZx9_7-53" value="" style="endArrow=classic;html=1;rounded=0;exitX=0.5;exitY=1;exitDx=0;exitDy=0;" edge="1" parent="1" source="tAgOyQD6eEbp63vZx9_7-49" target="tAgOyQD6eEbp63vZx9_7-29">
          <mxGeometry width="50" height="50" relative="1" as="geometry">
            <mxPoint x="476" y="679" as="sourcePoint" />
            <mxPoint x="526" y="629" as="targetPoint" />
          </mxGeometry>
        </mxCell>
        <mxCell id="tAgOyQD6eEbp63vZx9_7-54" value="" style="endArrow=classic;html=1;rounded=0;exitX=0.5;exitY=1;exitDx=0;exitDy=0;entryX=0.5;entryY=0;entryDx=0;entryDy=0;" edge="1" parent="1" source="tAgOyQD6eEbp63vZx9_7-29" target="tAgOyQD6eEbp63vZx9_7-32">
          <mxGeometry width="50" height="50" relative="1" as="geometry">
            <mxPoint x="596" y="649" as="sourcePoint" />
            <mxPoint x="646" y="599" as="targetPoint" />
          </mxGeometry>
        </mxCell>
        <mxCell id="tAgOyQD6eEbp63vZx9_7-55" value="" style="endArrow=classic;html=1;rounded=0;exitX=1;exitY=0.5;exitDx=0;exitDy=0;entryX=0;entryY=0.5;entryDx=0;entryDy=0;" edge="1" parent="1" source="tAgOyQD6eEbp63vZx9_7-32" target="tAgOyQD6eEbp63vZx9_7-35">
          <mxGeometry width="50" height="50" relative="1" as="geometry">
            <mxPoint x="556" y="799" as="sourcePoint" />
            <mxPoint x="606" y="749" as="targetPoint" />
          </mxGeometry>
        </mxCell>
        <mxCell id="tAgOyQD6eEbp63vZx9_7-57" value="" style="endArrow=classic;html=1;rounded=0;exitX=0.5;exitY=1;exitDx=0;exitDy=0;" edge="1" parent="1" source="tAgOyQD6eEbp63vZx9_7-32">
          <mxGeometry width="50" height="50" relative="1" as="geometry">
            <mxPoint x="316" y="909" as="sourcePoint" />
            <mxPoint x="372" y="849" as="targetPoint" />
          </mxGeometry>
        </mxCell>
        <mxCell id="tAgOyQD6eEbp63vZx9_7-58" value="" style="endArrow=classic;html=1;rounded=0;exitX=0.5;exitY=1;exitDx=0;exitDy=0;" edge="1" parent="1" source="tAgOyQD6eEbp63vZx9_7-40" target="tAgOyQD6eEbp63vZx9_7-42">
          <mxGeometry width="50" height="50" relative="1" as="geometry">
            <mxPoint x="456" y="1219" as="sourcePoint" />
            <mxPoint x="506" y="1169" as="targetPoint" />
          </mxGeometry>
        </mxCell>
        <mxCell id="tAgOyQD6eEbp63vZx9_7-59" value="" style="endArrow=classic;html=1;rounded=0;exitX=0.5;exitY=1;exitDx=0;exitDy=0;entryX=0.5;entryY=0;entryDx=0;entryDy=0;" edge="1" parent="1" source="tAgOyQD6eEbp63vZx9_7-42" target="tAgOyQD6eEbp63vZx9_7-44">
          <mxGeometry width="50" height="50" relative="1" as="geometry">
            <mxPoint x="466" y="1339" as="sourcePoint" />
            <mxPoint x="516" y="1289" as="targetPoint" />
          </mxGeometry>
        </mxCell>
        <mxCell id="tAgOyQD6eEbp63vZx9_7-60" value="" style="endArrow=classic;html=1;rounded=0;exitX=0.5;exitY=1;exitDx=0;exitDy=0;" edge="1" parent="1" source="tAgOyQD6eEbp63vZx9_7-44" target="tAgOyQD6eEbp63vZx9_7-46">
          <mxGeometry width="50" height="50" relative="1" as="geometry">
            <mxPoint x="846" y="1559" as="sourcePoint" />
            <mxPoint x="896" y="1509" as="targetPoint" />
          </mxGeometry>
        </mxCell>
        <mxCell id="tAgOyQD6eEbp63vZx9_7-61" value="" style="endArrow=classic;html=1;rounded=0;exitX=0.5;exitY=1;exitDx=0;exitDy=0;entryX=0.5;entryY=0;entryDx=0;entryDy=0;" edge="1" parent="1" source="tAgOyQD6eEbp63vZx9_7-46" target="tAgOyQD6eEbp63vZx9_7-51">
          <mxGeometry width="50" height="50" relative="1" as="geometry">
            <mxPoint x="516" y="1569" as="sourcePoint" />
            <mxPoint x="566" y="1519" as="targetPoint" />
          </mxGeometry>
        </mxCell>
      </root>
    </mxGraphModel>
  </diagram>
</mxfile>
